solid OpenSCAD_Model
  facet normal -1 0 0
    outer loop
      vertex -15 -8.5 -5
      vertex -15 8 5
      vertex -15 8 -5
    endloop
  endfacet
  facet normal -1 -0 0
    outer loop
      vertex -15 8 5
      vertex -15 -8.5 -5
      vertex -15 -8.5 5
    endloop
  endfacet
  facet normal -0 0 1
    outer loop
      vertex -12 2 5
      vertex 12 -2 5
      vertex 12 2 5
    endloop
  endfacet
  facet normal 0 0 1
    outer loop
      vertex 12 -2 5
      vertex -12 2 5
      vertex -12 -2 5
    endloop
  endfacet
  facet normal 0 0 1
    outer loop
      vertex 12 2 5
      vertex 15 8 5
      vertex 12 5 5
    endloop
  endfacet
  facet normal 0 0 1
    outer loop
      vertex 15 8 5
      vertex -12 5 5
      vertex 12 5 5
    endloop
  endfacet
  facet normal 0 0 1
    outer loop
      vertex -15 8 5
      vertex -12 2 5
      vertex -12 5 5
    endloop
  endfacet
  facet normal 0 0 1
    outer loop
      vertex -12 2 5
      vertex -15 8 5
      vertex -12 -2 5
    endloop
  endfacet
  facet normal 0 0 1
    outer loop
      vertex -15 -8.5 5
      vertex -12 -2 5
      vertex -15 8 5
    endloop
  endfacet
  facet normal -0 0 1
    outer loop
      vertex -15 8 5
      vertex -12 5 5
      vertex 15 8 5
    endloop
  endfacet
  facet normal 0 0 1
    outer loop
      vertex 12 -2 5
      vertex 15 8 5
      vertex 12 2 5
    endloop
  endfacet
  facet normal 0 0 1
    outer loop
      vertex 15 8 5
      vertex 12 -2 5
      vertex 15 -8.5 5
    endloop
  endfacet
  facet normal -0 0 1
    outer loop
      vertex 12 -5.5 5
      vertex 15 -8.5 5
      vertex 12 -2 5
    endloop
  endfacet
  facet normal -0 0 1
    outer loop
      vertex -12 -5.5 5
      vertex 15 -8.5 5
      vertex 12 -5.5 5
    endloop
  endfacet
  facet normal 0 0 1
    outer loop
      vertex -12 -5.5 5
      vertex -15 -8.5 5
      vertex 15 -8.5 5
    endloop
  endfacet
  facet normal 0 0 1
    outer loop
      vertex -12 -2 5
      vertex -15 -8.5 5
      vertex -12 -5.5 5
    endloop
  endfacet
  facet normal 1 -0 0
    outer loop
      vertex 15 -8.5 5
      vertex 15 8 -5
      vertex 15 8 5
    endloop
  endfacet
  facet normal 1 0 0
    outer loop
      vertex 15 8 -5
      vertex 15 -8.5 5
      vertex 15 -8.5 -5
    endloop
  endfacet
  facet normal 0 1 -0
    outer loop
      vertex 15 8 -5
      vertex -15 8 5
      vertex 15 8 5
    endloop
  endfacet
  facet normal 0 1 0
    outer loop
      vertex -15 8 5
      vertex 15 8 -5
      vertex -15 8 -5
    endloop
  endfacet
  facet normal 0 0 -1
    outer loop
      vertex -12 -2 -5
      vertex 12 2 -5
      vertex 12 -2 -5
    endloop
  endfacet
  facet normal -0 0 -1
    outer loop
      vertex 12 2 -5
      vertex -12 -2 -5
      vertex -12 2 -5
    endloop
  endfacet
  facet normal 0 0 -1
    outer loop
      vertex 12 -2 -5
      vertex 15 -8.5 -5
      vertex 12 -5.5 -5
    endloop
  endfacet
  facet normal 0 0 -1
    outer loop
      vertex 15 -8.5 -5
      vertex -12 -5.5 -5
      vertex 12 -5.5 -5
    endloop
  endfacet
  facet normal 0 0 -1
    outer loop
      vertex -15 -8.5 -5
      vertex -12 -2 -5
      vertex -12 -5.5 -5
    endloop
  endfacet
  facet normal 0 0 -1
    outer loop
      vertex -15 8 -5
      vertex -12 -2 -5
      vertex -15 -8.5 -5
    endloop
  endfacet
  facet normal 0 0 -1
    outer loop
      vertex -12 -2 -5
      vertex -15 8 -5
      vertex -12 2 -5
    endloop
  endfacet
  facet normal 0 0 -1
    outer loop
      vertex -15 -8.5 -5
      vertex -12 -5.5 -5
      vertex 15 -8.5 -5
    endloop
  endfacet
  facet normal 0 0 -1
    outer loop
      vertex 15 -8.5 -5
      vertex 12 -2 -5
      vertex 15 8 -5
    endloop
  endfacet
  facet normal 0 0 -1
    outer loop
      vertex 12 2 -5
      vertex 15 8 -5
      vertex 12 -2 -5
    endloop
  endfacet
  facet normal 0 0 -1
    outer loop
      vertex 12 5 -5
      vertex 15 8 -5
      vertex 12 2 -5
    endloop
  endfacet
  facet normal 0 0 -1
    outer loop
      vertex -12 5 -5
      vertex 15 8 -5
      vertex 12 5 -5
    endloop
  endfacet
  facet normal 0 0 -1
    outer loop
      vertex -12 5 -5
      vertex -15 8 -5
      vertex 15 8 -5
    endloop
  endfacet
  facet normal 0 0 -1
    outer loop
      vertex -12 2 -5
      vertex -15 8 -5
      vertex -12 5 -5
    endloop
  endfacet
  facet normal 0 -1 0
    outer loop
      vertex -15 -8.5 -5
      vertex 15 -8.5 5
      vertex -15 -8.5 5
    endloop
  endfacet
  facet normal 0 -1 -0
    outer loop
      vertex 15 -8.5 5
      vertex -15 -8.5 -5
      vertex 15 -8.5 -5
    endloop
  endfacet
  facet normal 1 -0 0
    outer loop
      vertex -12 2 5
      vertex -12 5 -5
      vertex -12 5 5
    endloop
  endfacet
  facet normal 1 0 0
    outer loop
      vertex -12 5 -5
      vertex -12 2 5
      vertex -12 2 -5
    endloop
  endfacet
  facet normal -1 0 0
    outer loop
      vertex 12 2 -5
      vertex 12 5 5
      vertex 12 5 -5
    endloop
  endfacet
  facet normal -1 -0 0
    outer loop
      vertex 12 5 5
      vertex 12 2 -5
      vertex 12 2 5
    endloop
  endfacet
  facet normal 0 -1 0
    outer loop
      vertex -12 5 -5
      vertex 12 5 5
      vertex -12 5 5
    endloop
  endfacet
  facet normal 0 -1 -0
    outer loop
      vertex 12 5 5
      vertex -12 5 -5
      vertex 12 5 -5
    endloop
  endfacet
  facet normal 0 1 -0
    outer loop
      vertex 12 2 -5
      vertex -12 2 5
      vertex 12 2 5
    endloop
  endfacet
  facet normal 0 1 0
    outer loop
      vertex -12 2 5
      vertex 12 2 -5
      vertex -12 2 -5
    endloop
  endfacet
  facet normal 1 -0 0
    outer loop
      vertex -12 -5.5 5
      vertex -12 -2 -5
      vertex -12 -2 5
    endloop
  endfacet
  facet normal 1 0 0
    outer loop
      vertex -12 -2 -5
      vertex -12 -5.5 5
      vertex -12 -5.5 -5
    endloop
  endfacet
  facet normal -1 0 0
    outer loop
      vertex 12 -5.5 -5
      vertex 12 -2 5
      vertex 12 -2 -5
    endloop
  endfacet
  facet normal -1 -0 0
    outer loop
      vertex 12 -2 5
      vertex 12 -5.5 -5
      vertex 12 -5.5 5
    endloop
  endfacet
  facet normal 0 -1 0
    outer loop
      vertex -12 -2 -5
      vertex 12 -2 5
      vertex -12 -2 5
    endloop
  endfacet
  facet normal 0 -1 -0
    outer loop
      vertex 12 -2 5
      vertex -12 -2 -5
      vertex 12 -2 -5
    endloop
  endfacet
  facet normal 0 1 -0
    outer loop
      vertex 12 -5.5 -5
      vertex -12 -5.5 5
      vertex 12 -5.5 5
    endloop
  endfacet
  facet normal 0 1 0
    outer loop
      vertex -12 -5.5 5
      vertex 12 -5.5 -5
      vertex -12 -5.5 -5
    endloop
  endfacet
endsolid OpenSCAD_Model
